<?xml version="1.0" standalone="no"?><!DOCTYPE svg PUBLIC "-//W3C//DTD SVG 1.1//EN" "http://www.w3.org/Graphics/SVG/1.1/DTD/svg11.dtd"><svg t="1697791510623" class="icon" viewBox="0 0 1024 1024" version="1.1" xmlns="http://www.w3.org/2000/svg" p-id="5028" xmlns:xlink="http://www.w3.org/1999/xlink" width="200" height="200"><path d="M493.226667 378.453333V725.333333h373.76c78.933333-5.546667 114.346667-54.186667 114.346666-113.92 0-63.146667-47.786667-113.92-111.786666-113.92-16.213333 0-29.866667 3.413333-43.946667 9.386667-10.24-99.84-95.146667-177.92-199.68-177.92-49.92 0-97.28 18.773333-132.693333 49.493333m-37.546667 43.52c-12.8-7.68-26.453333-13.653333-41.386667-16.64V725.333333h59.306667V398.506667c-6.4 6.826667-12.373333 15.36-17.92 23.466666m-100.266667-23.04V725.333333h39.253334V400.213333c-8.106667-1.28-16.213333-1.706667-24.746667-1.706666-5.12 0-9.813333 0-14.506667 0.426666M277.333333 426.666667v298.666666h38.826667V407.04c-14.08 4.693333-27.306667 11.52-38.826667 19.626667m-71.253333 106.666666c-2.56 0-5.12-2.56-8.106667-3.84V725.333333h39.253334v-261.973333c-15.786667 20.48-26.453333 44.8-31.146667 69.973333m-87.04-11.946666v200.106666c8.96 2.56 19.2 3.84 30.293333 3.84h9.386667v-207.36c-3.413333-0.426667-6.826667-0.853333-9.386667-0.853333-11.093333 0-21.333333 1.706667-30.293333 4.266667M42.666667 621.226667c0 32 14.506667 60.16 37.12 79.36v-158.293334c-22.613333 18.773333-37.12 47.36-37.12 78.933334z" fill="" p-id="5029"></path></svg>